<svg fill="none" viewBox="0 0 24 24" xmlns="http://www.w3.org/2000/svg"><g fill="#d83939"><path d="m8.00386 9.41816c-.39053-.39053-.39052-1.02369 0-1.41421.39052-.39053 1.02369-.39053 1.41421 0l2.58763 2.58765 2.585-2.58503c.3906-.39052 1.0237-.39052 1.4142 0 .3906.39053.3906 1.02369 0 1.41422l-2.585 2.58501 2.584 2.5839c.3905.3906.3905 1.0237 0 1.4142-.3906.3906-1.0237.3906-1.4143 0l-2.5839-2.5839-2.58473 2.5848c-.39052.3905-1.02369.3905-1.41421 0-.39052-.3906-.39052-1.0237 0-1.4143l2.58474-2.5847z"/><path clip-rule="evenodd" d="m23 12c0 6.0751-4.9249 11-11 11-6.07513 0-11-4.9249-11-11 0-6.07513 4.92487-11 11-11 6.0751 0 11 4.92487 11 11zm-19.99317 0c0 4.9668 4.02638 8.9932 8.99317 8.9932 4.9668 0 8.9932-4.0264 8.9932-8.9932 0-4.96679-4.0264-8.99317-8.9932-8.99317-4.96679 0-8.99317 4.02638-8.99317 8.99317z" fill-rule="evenodd"/></g></svg>