<svg fill="none" viewBox="0 0 24 24" xmlns="http://www.w3.org/2000/svg"><g fill="#08b450"><path d="m15.9047 8.38142c.3905-.39052 1.0237-.39052 1.4142 0 .3905.39053.3905 1.02369 0 1.41422l-5.2648 5.26356c-.9751.9749-2.55556.9762-3.53227.0028l-1.81472-1.8085c-.39053-.3905-.39053-1.0237 0-1.4142.39052-.3905 1.02369-.3905 1.41421 0l1.45566 1.4556c.39052.3906 1.02372.3906 1.41422 0z"/><path clip-rule="evenodd" d="m12 23c6.0751 0 11-4.9249 11-11 0-6.07513-4.9249-11-11-11-6.07513 0-11 4.92487-11 11 0 6.0751 4.92487 11 11 11zm0-2.0068c-4.96679 0-8.99317-4.0264-8.99317-8.9932 0-4.96679 4.02638-8.99317 8.99317-8.99317 4.9668 0 8.9932 4.02638 8.9932 8.99317 0 4.9668-4.0264 8.9932-8.9932 8.9932z" fill-rule="evenodd"/></g></svg>