<svg fill="none" viewBox="0 0 24 24" xmlns="http://www.w3.org/2000/svg"><g fill="#df9904"><path d="m23 12c0 6.0751-4.9249 11-11 11-6.07513 0-11-4.9249-11-11 0-6.07513 4.92487-11 11-11 6.0751 0 11 4.92487 11 11zm-19.99317 0c0 4.9668 4.02638 8.9932 8.99317 8.9932 4.9668 0 8.9932-4.0264 8.9932-8.9932 0-4.96679-4.0264-8.99317-8.9932-8.99317-4.96679 0-8.99317 4.02638-8.99317 8.99317z"/><path d="m13.5 18c0 .8284-.6716 1.5-1.5 1.5s-1.5-.6716-1.5-1.5.6716-1.5 1.5-1.5 1.5.6716 1.5 1.5z"/><path d="m11 12v2s0 1 1 1 1-1 1-1v-2s.4792-.1371.6629-.2117c0 0 .334-.1192.5678-.2987.2339-.1794.4454-.3926.6347-.6393.2004-.2468.3563-.5328.4676-.85809.1113-.32528.167-.58841.167-.99221 0-.67299-.1503-1.36325-.4509-1.868-.2895-.51596-.7015-.91414-1.2359-1.19455-.5344-.29163-1.1579-.43745-1.8705-.43745-.4453 0-.8406.05608-1.1857.16825-.3452.10095-.6513.24115-.91856.42062-.25608.16825-.47319.35893-.65133.57204-.167.2019-.30061.39819-.40082.58887-.1002.19068-.167.35892-.2004.50474-.06681.21311-.09464.38697-.08351.52157.02227.1346.08907.24676.20041.33649s.28391.18507.51772.28602c.24495.07852.43422.10656.56783.08413.14474-.02244.26166-.08974.35076-.2019 0 0 .4747-.67514.6083-.80974.1448-.14581.3229-.25797.5345-.33649.2115-.08973.4509-.1346.7181-.1346.579 0 1.0076.14021 1.286.42062.2894.2692.3769.49567.3769 1.01163 0 .34771-.0612.62813-.1837.84124s-.2839.38701-.4843.52161c0 0-.2722.104-.4949.2049-.2115.0897-.5999.2381-.8003.3503-.1893.1009-.2954.207-.4178.3641-.1225.157-.2819.5164-.2819.7856z"/></g></svg>