<?xml version="1.0" encoding="UTF-8" standalone="no"?>
<svg
   viewBox="-25 0 100 100"
   version="1.1"
   id="svg7"
   sodipodi:docname="logo_t1.svg"
   inkscape:version="1.3 (0e150ed6c4, 2023-07-21)"
   xmlns:inkscape="http://www.inkscape.org/namespaces/inkscape"
   xmlns:sodipodi="http://sodipodi.sourceforge.net/DTD/sodipodi-0.dtd"
   xmlns:xlink="http://www.w3.org/1999/xlink"
   xmlns="http://www.w3.org/2000/svg"
   xmlns:svg="http://www.w3.org/2000/svg">
  <defs
     id="defs7">
    <linearGradient
       id="linearGradient7"
       inkscape:collect="always">
      <stop
         style="stop-color:#a0ccff;stop-opacity:1;"
         offset="0"
         id="stop7" />
      <stop
         style="stop-color:#0077ff;stop-opacity:1;"
         offset="1"
         id="stop8" />
    </linearGradient>
    <linearGradient
       inkscape:collect="always"
       xlink:href="#linearGradient7"
       id="linearGradient8"
       x1="10"
       y1="50"
       x2="97.5"
       y2="50"
       gradientUnits="userSpaceOnUse"
       gradientTransform="translate(-22.5)" />
  </defs>
  <sodipodi:namedview
     id="namedview7"
     pagecolor="#ffffff"
     bordercolor="#000000"
     borderopacity="0.25"
     inkscape:showpageshadow="2"
     inkscape:pageopacity="0.0"
     inkscape:pagecheckerboard="0"
     inkscape:deskcolor="#d1d1d1"
     inkscape:zoom="7.976"
     inkscape:cx="62.5"
     inkscape:cy="49.962387"
     inkscape:window-width="1920"
     inkscape:window-height="1147"
     inkscape:window-x="-8"
     inkscape:window-y="-8"
     inkscape:window-maximized="1"
     inkscape:current-layer="svg7" />
  <!-- right tire -->
  <path
     d="m 25,0 a 25,50 0 0 1 0,100"
     style="fill:#0a0a0a;stroke:none"
     id="path1" />
  <!-- wheel barrel -->
  <path
     d="m 25,15 a 17.5,35 0 0 0 0,70 17.5,35 0 0 0 0,-70"
     style="fill:#4c4c4c;stroke:none"
     id="path2" />
  <!-- right rim edge -->
  <path
     d="m 25,85 a 17.5,35 0 0 0 0,-70 v 3 a 14.72,32 0 0 1 0,64"
     style="fill:#848484;stroke:none"
     id="path3" />
  <!-- arrow -->
  <!--<path d="M 10 35 H 80 V 30 L 100 50 L 80 70 V 65 H 10" style="stroke: none; fill: #08b450;" />-->
  <!-- green -->
  <!-- blue  -->
  <path
     d="m -12.5,27.5 h 70 L 75,50 57.5,72.5 h -70"
     style="fill:url(#linearGradient8);stroke:none"
     id="path5"
     inkscape:label="path5" />
  <!-- white <path d="M 80 27.5 H 85 L 100 50 L 85 72.5 H 80 L 95 50" style="stroke: none; fill: #FFFFFF;" />-->
  <!--  left rim edge -->
  <path
     d="m 25,15 a 17.5,35 0 0 0 0,70 v -3 a 14.72,32 0 0 1 0,-64"
     style="fill:#848484;stroke:none"
     id="path6" />
  <!-- left tire -->
  <path
     d="M 25,0 H 0 A 25,50 0 0 0 0,100 H 25 V 85 A 17.5,35 0 0 1 25,15 V 0"
     style="fill:#0a0a0a;stroke:none"
     id="path7" />
</svg>
