<svg fill="none" viewBox="0 0 24 24" xmlns="http://www.w3.org/2000/svg"><path clip-rule="evenodd" d="m18.1716 1c.5304 0 1.0391.21071 1.4142.58579l2.8284 2.82842c.3751.37508.5858.88378.5858 1.41422v14.17157c0 1.6569-1.3431 3-3 3h-16c-1.65685 0-3-1.3431-3-3v-16c0-1.65685 1.34315-3 3-3zm-14.1716 2c-.55228 0-1 .44772-1 1v16c0 .5523.44772 1 1 1h1v-6c0-1.6569 1.34315-3 3-3h8c1.6569 0 3 1.3431 3 3v6h1c.5523 0 1-.4477 1-1v-13.17157c0-.53044-.2107-1.03914-.5858-1.41422l-1.8284-1.82842c-.3751-.37508-.8838-.58579-1.4142-.58579h-.1716v2c0 1.65685-1.3431 3-3 3h-4c-1.65685 0-3-1.34315-3-3v-2zm13 18v-6c0-.5523-.4477-1-1-1h-8c-.55228 0-1 .4477-1 1v6zm-8-18h6v2c0 .55228-.4477 1-1 1h-4c-.55228 0-1-.44772-1-1z" fill="#ffffff" fill-rule="evenodd"/></svg>