<svg fill="none" viewBox="0 0 24 24" width="24" xmlns="http://www.w3.org/2000/svg"><g fill="#d83939"><path d="m9 11c0-.5523.44771-1 1-1 .5523 0 1 .4477 1 1v6c0 .5523-.4477 1-1 1-.55229 0-1-.4477-1-1z"/><path d="m14 10c-.5523 0-1 .4477-1 1v6c0 .5523.4477 1 1 1s1-.4477 1-1v-6c0-.5523-.4477-1-1-1z"/><path clip-rule="evenodd" d="m8.53113 1c-3.00749 0-5.33442 2.63591-4.96139 5.62017l1.71899 13.75193c.18766 1.5013 1.46387 2.6279 2.97684 2.6279h7.46883c1.513 0 2.7892-1.1266 2.9769-2.6279l1.719-13.75193c.373-2.98426-1.9539-5.62017-4.9614-5.62017zm-2.82965 4c.40918-1.1545 1.51027-2 2.82965-2h6.93777c1.3194 0 2.4204.8455 2.8296 2zm-.06869 2 1.6405 13.124c.06255.5005.48795.876.99228.876h7.46883c.5044 0 .9298-.3755.9923-.876l1.6405-13.124z" fill-rule="evenodd"/></g></svg>