<?xml version="1.0" encoding="UTF-8" standalone="no"?>
<svg
   viewBox="-25 0 516 258.00008"
   version="1.1"
   id="svg7"
   sodipodi:docname="logo_u2.svg"
   inkscape:version="1.3 (0e150ed6c4, 2023-07-21)"
   width="387pt"
   height="193.5pt"
   inkscape:export-filename="logo_u2.png"
   inkscape:export-xdpi="238.13954"
   inkscape:export-ydpi="238.13954"
   xmlns:inkscape="http://www.inkscape.org/namespaces/inkscape"
   xmlns:sodipodi="http://sodipodi.sourceforge.net/DTD/sodipodi-0.dtd"
   xmlns:xlink="http://www.w3.org/1999/xlink"
   xmlns="http://www.w3.org/2000/svg"
   xmlns:svg="http://www.w3.org/2000/svg">
  <defs
     id="defs7">
    <linearGradient
       id="linearGradient7"
       inkscape:collect="always">
      <stop
         style="stop-color:#a0ccff;stop-opacity:1;"
         offset="0"
         id="stop7" />
      <stop
         style="stop-color:#0077ff;stop-opacity:1;"
         offset="1"
         id="stop8" />
    </linearGradient>
    <linearGradient
       inkscape:collect="always"
       xlink:href="#linearGradient7"
       id="linearGradient8"
       x1="10"
       y1="50"
       x2="97.5"
       y2="50"
       gradientUnits="userSpaceOnUse"
       gradientTransform="translate(38.017333,52.5)" />
    <style
       type="text/css"
       id="style1">&#10;      @import url(&quot;https://fonts.googleapis.com/css2?family=Fira+Sans:wght@200&quot;);&#10;   </style>
  </defs>
  <sodipodi:namedview
     id="namedview7"
     pagecolor="#272727"
     bordercolor="#000000"
     borderopacity="0.25"
     inkscape:showpageshadow="2"
     inkscape:pageopacity="0.0"
     inkscape:pagecheckerboard="0"
     inkscape:deskcolor="#d1d1d1"
     inkscape:zoom="2"
     inkscape:cx="263.75"
     inkscape:cy="107.25"
     inkscape:window-width="1920"
     inkscape:window-height="1147"
     inkscape:window-x="-8"
     inkscape:window-y="-8"
     inkscape:window-maximized="1"
     inkscape:current-layer="svg7"
     showgrid="false"
     inkscape:export-bgcolor="#272727ff"
     inkscape:document-units="pt" />
  <!-- right tire -->
  <path
     d="m 85.517333,52.5 a 25,50 0 0 1 0,100"
     style="fill:#0a0a0a;stroke:none"
     id="path1" />
  <!-- wheel barrel -->
  <path
     d="m 85.517333,67.5 a 17.5,35 0 0 0 0,70 17.5,35 0 0 0 0,-70"
     style="fill:#4c4c4c;stroke:none"
     id="path2" />
  <!-- right rim edge -->
  <path
     d="m 85.517333,137.5 a 17.5,35 0 0 0 0,-70 v 3 a 14.72,32 0 0 1 0,64"
     style="fill:#848484;stroke:none"
     id="path3" />
  <!-- arrow -->
  <!--<path d="M 10 35 H 80 V 30 L 100 50 L 80 70 V 65 H 10" style="stroke: none; fill: #08b450;" />-->
  <!-- green -->
  <!-- blue  -->
  <path
     d="m 48.017333,80 h 69.999997 l 17.5,22.5 -17.5,22.5 H 48.017333"
     style="fill:url(#linearGradient8);stroke:none"
     id="path5"
     inkscape:label="path5" />
  <!-- white <path d="M 80 27.5 H 85 L 100 50 L 85 72.5 H 80 L 95 50" style="stroke: none; fill: #FFFFFF;" />-->
  <!--  left rim edge -->
  <path
     d="m 85.517333,67.5 a 17.5,35 0 0 0 0,70 v -3 a 14.72,32 0 0 1 0,-64"
     style="fill:#848484;stroke:none"
     id="path6" />
  <!-- left tire -->
  <path
     d="m 85.517333,52.5 h -25 a 25,50 0 0 0 0,100 h 25 v -15 a 17.5,35 0 0 1 0,-70 v -15"
     style="fill:#0a0a0a;stroke:none"
     id="path7" />
  <path
     d="m 73.000333,165.5 a 20,20 0 0 0 0,40 H 393.00033 a 20,20 0 0 0 0,-40 H 73.000333"
     style="fill:#0077ff;fill-opacity:1;stroke:none"
     id="path4" />
  <text
     xml:space="preserve"
     style="font-size:53.3333px;line-height:1;font-family:'Libre Caslon Text';-inkscape-font-specification:'Libre Caslon Text';text-align:center;letter-spacing:-1.25px;text-anchor:middle;fill:#f5f5f5;fill-opacity:1;stroke-width:2.3622"
     x="293.93396"
     y="122.01997"
     id="text10"><tspan
       sodipodi:role="line"
       id="tspan10"
       x="293.30896"
       y="122.01997"
       style="font-style:normal;font-variant:normal;font-weight:normal;font-stretch:normal;font-size:53.3333px;font-family:'Fira Sans', sans-serif;-inkscape-font-specification:'Fira Sans';letter-spacing:-1.25px"
       dx="0">Wheelhub.io</tspan></text>
  <text
     xml:space="preserve"
     style="font-size:24px;line-height:1;font-family:'Libre Caslon Text';-inkscape-font-specification:'Libre Caslon Text';text-align:center;text-anchor:middle;fill:#f5f5f5;stroke-width:2.3622"
     x="232.78441"
     y="194.356"
     id="text1"><tspan
       sodipodi:role="line"
       id="tspan1"
       x="232.78441"
       y="194.356"
       style="font-style:normal;font-variant:normal;font-weight:normal;font-stretch:normal;font-family:'Fira Sans';-inkscape-font-specification:'Fira Sans'">Wheel &amp; Tire Fitment Calculator</tspan></text>
</svg>
