<?xml version="1.0" encoding="UTF-8" standalone="no"?>
<svg
   viewBox="-25 0 345 100"
   version="1.1"
   id="svg7"
   sodipodi:docname="logo_t1_neutral.svg"
   inkscape:version="1.3 (0e150ed6c4, 2023-07-21)"
   xmlns:inkscape="http://www.inkscape.org/namespaces/inkscape"
   xmlns:sodipodi="http://sodipodi.sourceforge.net/DTD/sodipodi-0.dtd"
   xmlns:xlink="http://www.w3.org/1999/xlink"
   xmlns="http://www.w3.org/2000/svg"
   xmlns:svg="http://www.w3.org/2000/svg">
  <defs
     id="defs7">
    <linearGradient
       id="linearGradient7"
       inkscape:collect="always">
      <stop
         style="stop-color:#a0ccff;stop-opacity:1;"
         offset="0"
         id="stop7" />
      <stop
         style="stop-color:#0077ff;stop-opacity:1;"
         offset="1"
         id="stop8" />
    </linearGradient>
    <linearGradient
       inkscape:collect="always"
       xlink:href="#linearGradient7"
       id="linearGradient8"
       x1="10"
       y1="50"
       x2="97.5"
       y2="50"
       gradientUnits="userSpaceOnUse"
       gradientTransform="translate(-22.5)" />
  </defs>
  <sodipodi:namedview
     id="namedview7"
     pagecolor="#272727"
     bordercolor="#000000"
     borderopacity="0.25"
     inkscape:showpageshadow="2"
     inkscape:pageopacity="0.0"
     inkscape:pagecheckerboard="0"
     inkscape:deskcolor="#d1d1d1"
     inkscape:zoom="1.4099709"
     inkscape:cx="120.56986"
     inkscape:cy="108.15826"
     inkscape:window-width="1920"
     inkscape:window-height="1147"
     inkscape:window-x="-8"
     inkscape:window-y="-8"
     inkscape:window-maximized="1"
     inkscape:current-layer="svg7" />
  <!-- right tire -->
  <path
     d="m 25,0 a 25,50 0 0 1 0,100"
     style="fill:#0a0a0a;stroke:none"
     id="path1" />
  <!-- wheel barrel -->
  <path
     d="m 25,15 a 17.5,35 0 0 0 0,70 17.5,35 0 0 0 0,-70"
     style="fill:#4c4c4c;stroke:none"
     id="path2" />
  <!-- right rim edge -->
  <path
     d="m 25,85 a 17.5,35 0 0 0 0,-70 v 3 a 14.72,32 0 0 1 0,64"
     style="fill:#848484;stroke:none"
     id="path3" />
  <!-- arrow -->
  <!--<path d="M 10 35 H 80 V 30 L 100 50 L 80 70 V 65 H 10" style="stroke: none; fill: #08b450;" />-->
  <!-- green -->
  <!-- blue  -->
  <path
     d="m -12.5,27.5 h 70 L 75,50 57.5,72.5 h -70"
     style="fill:url(#linearGradient8);stroke:none"
     id="path5"
     inkscape:label="path5" />
  <!-- white <path d="M 80 27.5 H 85 L 100 50 L 85 72.5 H 80 L 95 50" style="stroke: none; fill: #FFFFFF;" />-->
  <!--  left rim edge -->
  <path
     d="m 25,15 a 17.5,35 0 0 0 0,70 v -3 a 14.72,32 0 0 1 0,-64"
     style="fill:#848484;stroke:none"
     id="path6" />
  <!-- left tire -->
  <path
     d="M 25,0 H 0 A 25,50 0 0 0 0,100 H 25 V 85 A 17.5,35 0 0 1 25,15 V 0"
     style="fill:#0a0a0a;stroke:none"
     id="path7" />
  <path
     style="font-size:53.3333px;line-height:1;font-family:'Fira Sans', sans-serif;-inkscape-font-specification:'Fira Sans';text-align:center;letter-spacing:-1.25px;text-anchor:middle;fill:#0077ff;stroke-width:2.3622"
     d="m 134.41332,33.039995 -8.21333,36.479979 h -3.09333 l -8.37333,-33.706647 -8.42666,33.706647 h -3.04 L 95.000006,33.039995 h 2.613331 L 104.92,67.066642 113.29333,33.039995 h 2.88 l 8.47999,34.026647 7.30666,-34.026647 z m 18.3767,8.106662 q 3.73333,0 5.65333,2.239999 1.97333,2.239999 1.97333,6.29333 v 19.839988 h -2.45333 V 49.999985 q 0,-6.826662 -5.54667,-6.826662 -2.82666,0 -5.01333,1.599999 -2.18666,1.546666 -4.15999,4.426664 v 20.319988 h -2.45334 V 30.319997 l 2.45334,-0.32 v 16.586657 q 3.94666,-5.439997 9.54666,-5.439997 z m 37.09665,13.333326 q 0,1.119999 -0.10667,2.186665 h -18.87999 q 0.26667,5.706663 2.72,8.479995 2.45333,2.773332 6.4,2.773332 2.24,0 3.94666,-0.64 1.70667,-0.693333 3.62667,-2.186665 l 1.22666,1.599999 q -2.02666,1.706665 -4.16,2.559998 -2.13333,0.853333 -4.74666,0.853333 -5.38666,0 -8.47999,-3.786664 -3.09334,-3.786665 -3.09334,-10.506661 0,-4.426664 1.33334,-7.733328 1.33333,-3.359998 3.78666,-5.119997 2.50667,-1.813333 5.81333,-1.813333 5.17333,0 7.89333,3.573332 2.72,3.573331 2.72,9.759994 z m -2.4,-0.8 q 0,-4.85333 -2.02667,-7.626662 -2.02666,-2.826665 -6.07999,-2.826665 -3.62667,0 -5.97333,2.879998 -2.29333,2.826665 -2.50667,8.586662 h 16.58666 z m 29.5767,0.8 q 0,1.119999 -0.10666,2.186665 h -18.87999 q 0.26666,5.706663 2.72,8.479995 2.45333,2.773332 6.39999,2.773332 2.24,0 3.94667,-0.64 1.70666,-0.693333 3.62666,-2.186665 l 1.22667,1.599999 q -2.02667,1.706665 -4.16,2.559998 -2.13333,0.853333 -4.74667,0.853333 -5.38666,0 -8.47999,-3.786664 -3.09333,-3.786665 -3.09333,-10.506661 0,-4.426664 1.33333,-7.733328 1.33333,-3.359998 3.78667,-5.119997 2.50666,-1.813333 5.81333,-1.813333 5.17333,0 7.89332,3.573332 2.72,3.573331 2.72,9.759994 z m -2.4,-0.8 q 0,-4.85333 -2.02666,-7.626662 -2.02667,-2.826665 -6.08,-2.826665 -3.62666,0 -5.97333,2.879998 -2.29333,2.826665 -2.50666,8.586662 h 16.58665 z m 14.64337,16.426657 q -2.13333,0 -3.35999,-1.226666 -1.22667,-1.279999 -1.22667,-3.733331 V 30.319997 l 2.45333,-0.32 v 35.039979 q 0,2.879999 2.4,2.879999 0.96,0 1.97333,-0.373333 l 0.69334,1.866665 q -1.49334,0.693333 -2.93334,0.693333 z m 21.41667,-28.959983 q 3.73333,0 5.65333,2.239999 1.97333,2.239999 1.97333,6.29333 v 19.839988 h -2.45333 V 49.999985 q 0,-6.826662 -5.54666,-6.826662 -2.82667,0 -5.01333,1.599999 -2.18667,1.546666 -4.16,4.426664 v 20.319988 h -2.45333 V 30.319997 l 2.45333,-0.32 v 16.586657 q 3.94666,-5.439997 9.54666,-5.439997 z m 36.93665,28.373317 h -2.08 l -0.16,-5.17333 q -3.25333,5.759996 -9.22666,5.759996 -3.78666,0 -5.86666,-2.186665 -2.02667,-2.239999 -2.02667,-6.346663 V 41.67999 h 2.45334 v 19.679989 q 0,3.413331 1.49333,5.01333 1.49333,1.599999 4.42666,1.599999 5.12,0 8.53333,-5.97333 V 41.67999 h 2.45333 z M 309.13,41.146657 q 4.8,0 7.41333,3.733331 2.66666,3.679998 2.66666,10.559994 0,6.826663 -2.77333,10.773327 -2.72,3.893331 -7.67999,3.893331 -2.61333,0 -4.69333,-1.173333 -2.08,-1.173332 -3.52,-3.093331 l -0.26667,3.679998 h -2.13333 V 30.319997 l 2.45333,-0.32 v 15.679991 q 3.46667,-4.533331 8.53333,-4.533331 z m -0.74667,26.826651 q 3.94667,0 6.08,-3.199998 2.13333,-3.199998 2.13333,-9.333328 0,-6.13333 -2.02666,-9.173328 -1.97333,-3.039998 -5.81333,-3.039998 -2.61333,0 -4.53333,1.279999 -1.86667,1.226666 -3.62667,3.626665 v 15.253324 q 1.44,2.133332 3.41333,3.359998 1.97334,1.226666 4.37333,1.226666 z"
     id="text10"
     aria-label="Wheelhub" />
</svg>
