<svg fill="none" viewBox="0 0 24 24" xmlns="http://www.w3.org/2000/svg"><g fill="#ffffff"><path d="m11 2c0-.55228.4477-1 1-1 .0161 0 .0322.00038.0481.00114.0151-.00063.0304-.00088.0457-.00075 2.0261.01726 4.0153.59416 5.7436 1.67626 2.0118 1.2596 3.5622 3.13615 4.4197 5.34943.8575 2.21332.9761 4.64452.338 6.93082-.638 2.2862-1.9984 4.3047-3.8781 5.7541s-4.1777 2.2519-6.5511 2.2878c-2.37328.0358-4.69452-.6971-6.61706-2.0891s-3.34324-3.3686-4.04995-5.6345c-.607131-1.9467-.659337-4.0172-.1609-5.98107.13586-.53532.71509-.8066 1.23586-.6227.52077.18389.7912.75567.66622 1.29363-.36067 1.55254-.3035 3.17954.17463 4.71254.57778 1.8526 1.73929 3.4685 3.31109 4.6066 1.57179 1.1381 3.46951 1.7372 5.40991 1.7079 1.9403-.0292 3.8191-.6853 5.3559-1.8703 1.5367-1.185 2.6489-2.8352 3.1706-4.7044.5216-1.8691.4247-3.8568-.2764-5.66632-.7011-1.8095-1.9686-3.34369-3.6134-4.37349-1.1492-.71953-2.4395-1.16585-3.7724-1.315v1.93741c0 .55229-.4477 1-1 1s-1-.44771-1-1z"/><path clip-rule="evenodd" d="m5.31205 3.92537c-.39662-.26442-.92474-.21212-1.2618.12494-.33707.33707-.38936.86519-.12495 1.26181l5.38223 8.07338c.19815.2972.50176.7155.97547 1.0072.3452.2126.8934.47 1.5645.4783.7101.0089 1.4443-.2633 2.1022-.9212s.9301-1.3921.9213-2.1023c-.0084-.6711-.2657-1.2192-.4783-1.5644-.2918-.47375-.7101-.77736-1.0073-.97551zm5.65955 8.35073-2.60869-3.91313 3.91309 2.60873c.2507.1671.3602.2732.4137.3602.1066.173.1792.3632.1814.5405.0017.1383-.035.3626-.3356.6632s-.5249.3373-.6632.3356c-.1773-.0022-.3675-.0748-.5405-.1814-.087-.0536-.193-.1631-.3602-.4137z" fill-rule="evenodd"/></g></svg>